<mxfile host="app.diagrams.net" agent="Mozilla/5.0 (Windows NT 10.0; Win64; x64) AppleWebKit/537.36 (KHTML, like Gecko) Chrome/139.0.0.0 Safari/537.36" version="28.1.2">
  <diagram name="Page-1" id="wtnhBCef49xxu0SCB-ea">
    <mxGraphModel grid="1" page="1" gridSize="10" guides="1" tooltips="1" connect="1" arrows="1" fold="1" pageScale="1" pageWidth="850" pageHeight="1100" math="0" shadow="0">
      <root>
        <mxCell id="0" />
        <mxCell id="1" parent="0" />
        <mxCell id="v7xuy6t0Kg42sqRxE-Fz-1" value="" style="group" connectable="0" vertex="1" parent="1">
          <mxGeometry x="60" y="50" width="140" height="350" as="geometry" />
        </mxCell>
        <mxCell id="fRYC9BIiaAAFtldU4DTp-2" value="" style="rounded=0;whiteSpace=wrap;html=1;dashed=1;fillColor=none;" vertex="1" parent="v7xuy6t0Kg42sqRxE-Fz-1">
          <mxGeometry y="40" width="140" height="310" as="geometry" />
        </mxCell>
        <mxCell id="fRYC9BIiaAAFtldU4DTp-4" value="&lt;font style=&quot;font-size: 16px;&quot;&gt;Source Sytem&lt;/font&gt;" style="rounded=0;whiteSpace=wrap;html=1;dashed=1;strokeColor=none;" vertex="1" parent="v7xuy6t0Kg42sqRxE-Fz-1">
          <mxGeometry x="10" width="120" height="60" as="geometry" />
        </mxCell>
        <mxCell id="v7xuy6t0Kg42sqRxE-Fz-5" value="&lt;b&gt;CRM&lt;/b&gt;" style="image;aspect=fixed;html=1;points=[];align=center;fontSize=12;image=img/lib/azure2/general/Folder_Blank.svg;" vertex="1" parent="v7xuy6t0Kg42sqRxE-Fz-1">
          <mxGeometry x="50" y="110" width="40" height="32.47" as="geometry" />
        </mxCell>
        <mxCell id="v7xuy6t0Kg42sqRxE-Fz-6" value="&lt;b&gt;ERP&lt;/b&gt;" style="image;aspect=fixed;html=1;points=[];align=center;fontSize=12;image=img/lib/azure2/general/Folder_Blank.svg;" vertex="1" parent="v7xuy6t0Kg42sqRxE-Fz-1">
          <mxGeometry x="50" y="250" width="36.96" height="30" as="geometry" />
        </mxCell>
        <mxCell id="v7xuy6t0Kg42sqRxE-Fz-2" value="" style="group;rounded=0;" connectable="0" vertex="1" parent="1">
          <mxGeometry x="285" y="50" width="140" height="350" as="geometry" />
        </mxCell>
        <mxCell id="v7xuy6t0Kg42sqRxE-Fz-3" value="" style="rounded=0;whiteSpace=wrap;html=1;dashed=1;fillColor=none;" vertex="1" parent="v7xuy6t0Kg42sqRxE-Fz-2">
          <mxGeometry y="40" width="140" height="310" as="geometry" />
        </mxCell>
        <mxCell id="v7xuy6t0Kg42sqRxE-Fz-4" value="&lt;font style=&quot;font-size: 16px;&quot;&gt;Bronze Layer&lt;/font&gt;" style="rounded=0;whiteSpace=wrap;html=1;fillColor=#ffe6cc;dashed=1;strokeColor=#d79b00;" vertex="1" parent="v7xuy6t0Kg42sqRxE-Fz-2">
          <mxGeometry x="10" width="120" height="60" as="geometry" />
        </mxCell>
        <mxCell id="v7xuy6t0Kg42sqRxE-Fz-12" value="&lt;font&gt;crm_sales_details&lt;/font&gt;" style="rounded=0;whiteSpace=wrap;html=1;fillColor=#fff2cc;dashed=1;strokeColor=#d6b656;fontSize=11;" vertex="1" parent="v7xuy6t0Kg42sqRxE-Fz-2">
          <mxGeometry x="15" y="77" width="110" height="20" as="geometry" />
        </mxCell>
        <mxCell id="v7xuy6t0Kg42sqRxE-Fz-19" value="&lt;font style=&quot;font-size: 14px;&quot;&gt;crm_cust_info&lt;/font&gt;" style="rounded=0;whiteSpace=wrap;html=1;fillColor=#fff2cc;dashed=1;strokeColor=#d6b656;" vertex="1" parent="v7xuy6t0Kg42sqRxE-Fz-2">
          <mxGeometry x="15" y="111" width="110" height="20" as="geometry" />
        </mxCell>
        <mxCell id="v7xuy6t0Kg42sqRxE-Fz-18" value="&lt;font style=&quot;font-size: 14px;&quot;&gt;crm_prd_info&lt;/font&gt;" style="rounded=0;whiteSpace=wrap;html=1;fillColor=#fff2cc;dashed=1;strokeColor=#d6b656;" vertex="1" parent="v7xuy6t0Kg42sqRxE-Fz-2">
          <mxGeometry x="15" y="148" width="110" height="20" as="geometry" />
        </mxCell>
        <mxCell id="v7xuy6t0Kg42sqRxE-Fz-17" value="&lt;font style=&quot;font-size: 14px;&quot;&gt;erp_cust_az12&lt;/font&gt;" style="rounded=0;whiteSpace=wrap;html=1;fillColor=#fff2cc;dashed=1;strokeColor=#d6b656;" vertex="1" parent="v7xuy6t0Kg42sqRxE-Fz-2">
          <mxGeometry x="15" y="220" width="110" height="20" as="geometry" />
        </mxCell>
        <mxCell id="v7xuy6t0Kg42sqRxE-Fz-32" value="&lt;span style=&quot;font-size: 14px;&quot;&gt;erp_loc_a101&lt;/span&gt;" style="rounded=0;whiteSpace=wrap;html=1;fillColor=#fff2cc;dashed=1;strokeColor=#d6b656;" vertex="1" parent="v7xuy6t0Kg42sqRxE-Fz-2">
          <mxGeometry x="15" y="260" width="110" height="20" as="geometry" />
        </mxCell>
        <mxCell id="v7xuy6t0Kg42sqRxE-Fz-31" value="&lt;font&gt;erp_px_cat_g1v2&lt;/font&gt;" style="rounded=0;whiteSpace=wrap;html=1;fillColor=#fff2cc;dashed=1;strokeColor=#d6b656;" vertex="1" parent="v7xuy6t0Kg42sqRxE-Fz-2">
          <mxGeometry x="15" y="300" width="105" height="20" as="geometry" />
        </mxCell>
        <mxCell id="2fGSPv57KZoixETlQeFo-2" style="edgeStyle=orthogonalEdgeStyle;rounded=0;orthogonalLoop=1;jettySize=auto;html=1;entryX=0;entryY=0.5;entryDx=0;entryDy=0;" edge="1" parent="1" source="v7xuy6t0Kg42sqRxE-Fz-5" target="v7xuy6t0Kg42sqRxE-Fz-19">
          <mxGeometry relative="1" as="geometry">
            <Array as="points">
              <mxPoint x="230" y="176" />
              <mxPoint x="230" y="171" />
            </Array>
          </mxGeometry>
        </mxCell>
        <mxCell id="2fGSPv57KZoixETlQeFo-3" style="edgeStyle=orthogonalEdgeStyle;rounded=0;orthogonalLoop=1;jettySize=auto;html=1;entryX=0;entryY=0.5;entryDx=0;entryDy=0;" edge="1" parent="1" source="v7xuy6t0Kg42sqRxE-Fz-5" target="v7xuy6t0Kg42sqRxE-Fz-12">
          <mxGeometry relative="1" as="geometry" />
        </mxCell>
        <mxCell id="2fGSPv57KZoixETlQeFo-4" style="edgeStyle=orthogonalEdgeStyle;rounded=0;orthogonalLoop=1;jettySize=auto;html=1;entryX=0;entryY=0.5;entryDx=0;entryDy=0;" edge="1" parent="1" source="v7xuy6t0Kg42sqRxE-Fz-5" target="v7xuy6t0Kg42sqRxE-Fz-18">
          <mxGeometry relative="1" as="geometry" />
        </mxCell>
        <mxCell id="2fGSPv57KZoixETlQeFo-5" style="edgeStyle=orthogonalEdgeStyle;rounded=0;orthogonalLoop=1;jettySize=auto;html=1;entryX=0;entryY=0.5;entryDx=0;entryDy=0;" edge="1" parent="1" source="v7xuy6t0Kg42sqRxE-Fz-6" target="v7xuy6t0Kg42sqRxE-Fz-17">
          <mxGeometry relative="1" as="geometry" />
        </mxCell>
        <mxCell id="2fGSPv57KZoixETlQeFo-6" style="edgeStyle=orthogonalEdgeStyle;rounded=0;orthogonalLoop=1;jettySize=auto;html=1;entryX=0;entryY=0.5;entryDx=0;entryDy=0;" edge="1" parent="1" source="v7xuy6t0Kg42sqRxE-Fz-6" target="v7xuy6t0Kg42sqRxE-Fz-32">
          <mxGeometry relative="1" as="geometry" />
        </mxCell>
        <mxCell id="2fGSPv57KZoixETlQeFo-7" style="edgeStyle=orthogonalEdgeStyle;rounded=0;orthogonalLoop=1;jettySize=auto;html=1;entryX=0;entryY=0.5;entryDx=0;entryDy=0;" edge="1" parent="1" source="v7xuy6t0Kg42sqRxE-Fz-6" target="v7xuy6t0Kg42sqRxE-Fz-31">
          <mxGeometry relative="1" as="geometry" />
        </mxCell>
        <mxCell id="2fGSPv57KZoixETlQeFo-15" value="" style="group;rounded=0;" connectable="0" vertex="1" parent="1">
          <mxGeometry x="481" y="50" width="140" height="350" as="geometry" />
        </mxCell>
        <mxCell id="2fGSPv57KZoixETlQeFo-16" value="" style="rounded=0;whiteSpace=wrap;html=1;dashed=1;fillColor=none;" vertex="1" parent="2fGSPv57KZoixETlQeFo-15">
          <mxGeometry y="40" width="140" height="310" as="geometry" />
        </mxCell>
        <mxCell id="2fGSPv57KZoixETlQeFo-17" value="&lt;font style=&quot;font-size: 16px;&quot;&gt;&lt;b&gt;Silver Layer&lt;/b&gt;&lt;/font&gt;" style="rounded=0;whiteSpace=wrap;html=1;fillColor=#647687;dashed=1;strokeColor=#314354;fontColor=#ffffff;" vertex="1" parent="2fGSPv57KZoixETlQeFo-15">
          <mxGeometry x="10" width="120" height="60" as="geometry" />
        </mxCell>
        <mxCell id="2fGSPv57KZoixETlQeFo-18" value="&lt;font&gt;crm_sales_details&lt;/font&gt;" style="rounded=0;whiteSpace=wrap;html=1;fillColor=#647687;dashed=1;strokeColor=#314354;fontColor=#ffffff;fontSize=11;" vertex="1" parent="2fGSPv57KZoixETlQeFo-15">
          <mxGeometry x="15" y="77" width="110" height="20" as="geometry" />
        </mxCell>
        <mxCell id="2fGSPv57KZoixETlQeFo-19" value="&lt;font style=&quot;font-size: 14px;&quot;&gt;crm_cust_info&lt;/font&gt;" style="rounded=0;whiteSpace=wrap;html=1;fillColor=#647687;dashed=1;strokeColor=#314354;fontColor=#ffffff;" vertex="1" parent="2fGSPv57KZoixETlQeFo-15">
          <mxGeometry x="15" y="111" width="110" height="20" as="geometry" />
        </mxCell>
        <mxCell id="2fGSPv57KZoixETlQeFo-20" value="&lt;font style=&quot;font-size: 14px;&quot;&gt;crm_prd_info&lt;/font&gt;" style="rounded=0;whiteSpace=wrap;html=1;fillColor=#647687;dashed=1;strokeColor=#314354;fontColor=#ffffff;" vertex="1" parent="2fGSPv57KZoixETlQeFo-15">
          <mxGeometry x="15" y="148" width="110" height="20" as="geometry" />
        </mxCell>
        <mxCell id="2fGSPv57KZoixETlQeFo-21" value="&lt;font style=&quot;font-size: 14px;&quot;&gt;erp_cust_az12&lt;/font&gt;" style="rounded=0;whiteSpace=wrap;html=1;fillColor=#647687;dashed=1;strokeColor=#314354;fontColor=#ffffff;" vertex="1" parent="2fGSPv57KZoixETlQeFo-15">
          <mxGeometry x="15" y="220" width="110" height="20" as="geometry" />
        </mxCell>
        <mxCell id="2fGSPv57KZoixETlQeFo-22" value="&lt;span style=&quot;font-size: 14px;&quot;&gt;erp_loc_a101&lt;/span&gt;" style="rounded=0;whiteSpace=wrap;html=1;fillColor=#647687;dashed=1;strokeColor=#314354;fontColor=#ffffff;" vertex="1" parent="2fGSPv57KZoixETlQeFo-15">
          <mxGeometry x="15" y="260" width="110" height="20" as="geometry" />
        </mxCell>
        <mxCell id="2fGSPv57KZoixETlQeFo-23" value="&lt;font&gt;erp_px_cat_g1v2&lt;/font&gt;" style="rounded=0;whiteSpace=wrap;html=1;fillColor=#647687;dashed=1;strokeColor=#314354;fontColor=#ffffff;" vertex="1" parent="2fGSPv57KZoixETlQeFo-15">
          <mxGeometry x="15" y="300" width="110" height="20" as="geometry" />
        </mxCell>
        <mxCell id="2fGSPv57KZoixETlQeFo-24" style="edgeStyle=orthogonalEdgeStyle;rounded=0;orthogonalLoop=1;jettySize=auto;html=1;entryX=0;entryY=0.5;entryDx=0;entryDy=0;" edge="1" parent="1" source="v7xuy6t0Kg42sqRxE-Fz-12" target="2fGSPv57KZoixETlQeFo-18">
          <mxGeometry relative="1" as="geometry" />
        </mxCell>
        <mxCell id="2fGSPv57KZoixETlQeFo-25" style="edgeStyle=orthogonalEdgeStyle;rounded=0;orthogonalLoop=1;jettySize=auto;html=1;entryX=0;entryY=0.25;entryDx=0;entryDy=0;" edge="1" parent="1" source="v7xuy6t0Kg42sqRxE-Fz-19" target="2fGSPv57KZoixETlQeFo-19">
          <mxGeometry relative="1" as="geometry" />
        </mxCell>
        <mxCell id="2fGSPv57KZoixETlQeFo-26" style="edgeStyle=orthogonalEdgeStyle;rounded=0;orthogonalLoop=1;jettySize=auto;html=1;entryX=0;entryY=0.25;entryDx=0;entryDy=0;" edge="1" parent="1" source="v7xuy6t0Kg42sqRxE-Fz-18" target="2fGSPv57KZoixETlQeFo-20">
          <mxGeometry relative="1" as="geometry" />
        </mxCell>
        <mxCell id="2fGSPv57KZoixETlQeFo-27" style="edgeStyle=orthogonalEdgeStyle;rounded=0;orthogonalLoop=1;jettySize=auto;html=1;entryX=0;entryY=0.5;entryDx=0;entryDy=0;" edge="1" parent="1" source="v7xuy6t0Kg42sqRxE-Fz-17" target="2fGSPv57KZoixETlQeFo-21">
          <mxGeometry relative="1" as="geometry" />
        </mxCell>
        <mxCell id="2fGSPv57KZoixETlQeFo-28" style="edgeStyle=orthogonalEdgeStyle;rounded=0;orthogonalLoop=1;jettySize=auto;html=1;entryX=0;entryY=0.5;entryDx=0;entryDy=0;" edge="1" parent="1" source="v7xuy6t0Kg42sqRxE-Fz-32" target="2fGSPv57KZoixETlQeFo-22">
          <mxGeometry relative="1" as="geometry" />
        </mxCell>
        <mxCell id="2fGSPv57KZoixETlQeFo-29" style="edgeStyle=orthogonalEdgeStyle;rounded=0;orthogonalLoop=1;jettySize=auto;html=1;entryX=0;entryY=0.5;entryDx=0;entryDy=0;" edge="1" parent="1" source="v7xuy6t0Kg42sqRxE-Fz-31" target="2fGSPv57KZoixETlQeFo-23">
          <mxGeometry relative="1" as="geometry" />
        </mxCell>
        <mxCell id="QCpqd_eyujzKjY8IQi04-1" value="" style="group;rounded=0;" connectable="0" vertex="1" parent="1">
          <mxGeometry x="679" y="50" width="140" height="350" as="geometry" />
        </mxCell>
        <mxCell id="QCpqd_eyujzKjY8IQi04-2" value="" style="rounded=0;whiteSpace=wrap;html=1;dashed=1;fillColor=none;" vertex="1" parent="QCpqd_eyujzKjY8IQi04-1">
          <mxGeometry y="40" width="140" height="310" as="geometry" />
        </mxCell>
        <mxCell id="QCpqd_eyujzKjY8IQi04-3" value="&lt;font style=&quot;font-size: 16px; color: light-dark(rgb(0, 0, 0), rgb(0, 0, 0));&quot;&gt;&lt;b&gt;Gold Layer&lt;/b&gt;&lt;/font&gt;" style="rounded=0;whiteSpace=wrap;html=1;fillColor=light-dark(#f0a30a, #dae90c);dashed=1;strokeColor=#BD7000;fontColor=#000000;" vertex="1" parent="QCpqd_eyujzKjY8IQi04-1">
          <mxGeometry x="10" width="120" height="60" as="geometry" />
        </mxCell>
        <mxCell id="QCpqd_eyujzKjY8IQi04-4" value="&lt;font&gt;dim_customers&lt;/font&gt;" style="rounded=0;whiteSpace=wrap;html=1;fillColor=light-dark(#647687, #eae210);dashed=1;strokeColor=#314354;fontColor=#ffffff;fontSize=11;" vertex="1" parent="QCpqd_eyujzKjY8IQi04-1">
          <mxGeometry x="18" y="84" width="110" height="20" as="geometry" />
        </mxCell>
        <mxCell id="QCpqd_eyujzKjY8IQi04-5" value="&lt;font style=&quot;font-size: 13px;&quot;&gt;dim_products&lt;/font&gt;" style="rounded=0;whiteSpace=wrap;html=1;fillColor=light-dark(#647687, #dfef0b);dashed=1;strokeColor=#314354;fontColor=#ffffff;" vertex="1" parent="QCpqd_eyujzKjY8IQi04-1">
          <mxGeometry x="20" y="180" width="110" height="20" as="geometry" />
        </mxCell>
        <mxCell id="QCpqd_eyujzKjY8IQi04-6" value="&lt;font style=&quot;font-size: 14px;&quot;&gt;fact_sales&lt;/font&gt;" style="rounded=0;whiteSpace=wrap;html=1;fillColor=light-dark(#647687, #e1f00a);dashed=1;strokeColor=#314354;fontColor=#ffffff;" vertex="1" parent="QCpqd_eyujzKjY8IQi04-1">
          <mxGeometry x="20" y="260" width="110" height="20" as="geometry" />
        </mxCell>
        <mxCell id="QCpqd_eyujzKjY8IQi04-21" value="" style="endArrow=classic;startArrow=classic;html=1;rounded=0;exitX=1;exitY=0.75;exitDx=0;exitDy=0;" edge="1" parent="QCpqd_eyujzKjY8IQi04-1">
          <mxGeometry width="50" height="50" relative="1" as="geometry">
            <mxPoint x="-73" y="315" as="sourcePoint" />
            <mxPoint x="20" y="270" as="targetPoint" />
          </mxGeometry>
        </mxCell>
        <mxCell id="QCpqd_eyujzKjY8IQi04-11" style="edgeStyle=orthogonalEdgeStyle;rounded=0;orthogonalLoop=1;jettySize=auto;html=1;entryX=0;entryY=0.25;entryDx=0;entryDy=0;" edge="1" parent="1" source="2fGSPv57KZoixETlQeFo-18" target="QCpqd_eyujzKjY8IQi04-4">
          <mxGeometry relative="1" as="geometry" />
        </mxCell>
        <mxCell id="QCpqd_eyujzKjY8IQi04-15" value="" style="endArrow=classic;startArrow=classic;html=1;rounded=0;exitX=1;exitY=0.5;exitDx=0;exitDy=0;entryX=0;entryY=0.75;entryDx=0;entryDy=0;" edge="1" parent="1" source="2fGSPv57KZoixETlQeFo-22" target="QCpqd_eyujzKjY8IQi04-5">
          <mxGeometry width="50" height="50" relative="1" as="geometry">
            <mxPoint x="610" y="310" as="sourcePoint" />
            <mxPoint x="660" y="260" as="targetPoint" />
          </mxGeometry>
        </mxCell>
        <mxCell id="QCpqd_eyujzKjY8IQi04-16" value="" style="endArrow=classic;startArrow=classic;html=1;rounded=0;exitX=1;exitY=0.75;exitDx=0;exitDy=0;" edge="1" parent="1" source="2fGSPv57KZoixETlQeFo-21">
          <mxGeometry width="50" height="50" relative="1" as="geometry">
            <mxPoint x="606" y="290" as="sourcePoint" />
            <mxPoint x="699" y="240" as="targetPoint" />
          </mxGeometry>
        </mxCell>
        <mxCell id="QCpqd_eyujzKjY8IQi04-19" value="" style="endArrow=classic;startArrow=classic;html=1;rounded=0;exitX=1;exitY=0.75;exitDx=0;exitDy=0;entryX=0;entryY=0.5;entryDx=0;entryDy=0;" edge="1" parent="1" target="QCpqd_eyujzKjY8IQi04-5">
          <mxGeometry width="50" height="50" relative="1" as="geometry">
            <mxPoint x="610" y="175" as="sourcePoint" />
            <mxPoint x="703" y="130" as="targetPoint" />
          </mxGeometry>
        </mxCell>
        <mxCell id="QCpqd_eyujzKjY8IQi04-20" value="" style="endArrow=classic;startArrow=classic;html=1;rounded=0;exitX=1;exitY=0.75;exitDx=0;exitDy=0;entryX=0;entryY=0.5;entryDx=0;entryDy=0;" edge="1" parent="1" target="QCpqd_eyujzKjY8IQi04-6">
          <mxGeometry width="50" height="50" relative="1" as="geometry">
            <mxPoint x="610" y="210" as="sourcePoint" />
            <mxPoint x="699" y="275" as="targetPoint" />
          </mxGeometry>
        </mxCell>
      </root>
    </mxGraphModel>
  </diagram>
</mxfile>
